# xmcd CD database file generated by Grip 2.91
# 
# Track frame offsets:
#       150
#       17239
#       41783
#       63972
#       83365
#       111240
#       131211
#       149852
#       178578
#       198109
#       219311
#       237971
#       263347
#       291054
# 
# Disc length: 4122 seconds
# 
# Revision: 3
# Processed by: cddbd v1.4PL0 Copyright (c) Steve Scherf et al.
# Submitted via: Grip 2.91
# 
DISCID=c910180e
DTITLE=the robin bibi band - language of your soul
DYEAR=1900
DGENRE=
TTITLE0=Sonesta Stomp
TTITLE1=Language of your soul
TTITLE2=Hey Mama
TTITLE3=Big Trouble
TTITLE4=Bad is Bad
TTITLE5=(Up all night) Vampire Blues
TTITLE6=Born On The Horn
TTITLE7=Worryin' Ways
TTITLE8=Fool
TTITLE9=The Drivers Face
TTITLE10=Hey Mr Bibi (I wanna hat just like that)
TTITLE11=You Couldn'tve Thought I Loved You
TTITLE12=Jelly Out
TTITLE13=Chilly Wind Blues
EXTD=
EXTT0=
EXTT1=
EXTT2=
EXTT3=
EXTT4=
EXTT5=
EXTT6=
EXTT7=
EXTT8=
EXTT9=
EXTT10=
EXTT11=
EXTT12=
EXTT13=
PLAYORDER=
